<svg width="1472" height="438" viewBox="0 0 1472 438" fill="none" xmlns="http://www.w3.org/2000/svg">
<path d="M115.654 77.661C107.744 81.5368 82.7492 119.425 71.3591 144.894C68.9862 150.194 67.3252 154.781 67.6415 155.098C67.9579 155.414 71.8337 158.103 76.1841 161.03C90.9753 171.154 105.292 183.573 116.524 195.912L123.089 203.189L132.343 193.381C142.626 182.465 156.705 170.363 168.966 161.9C176.322 156.838 177.034 156.126 176.638 154.307C175.847 151.143 164.932 128.995 159.948 120.532C151.722 106.453 135.666 83.5933 131.394 79.7967C129.18 77.8192 124.434 76 121.507 76C120.083 76 117.394 76.7118 115.654 77.661Z" fill="url(#paint0_linear_6_2)"/>
<path d="M12.9061 158.973C9.2676 160.635 6.65738 163.245 5.47091 166.25C2.30701 174.635 -0.935994 212.285 0.25047 226.523C0.804154 233.167 0.804154 233.246 3.25618 234.274C35.9235 247.167 63.845 267.337 83.0657 292.016C97.066 309.971 111.224 337.497 117.79 359.723C118.897 363.678 119.688 363.995 120.479 360.989C121.982 354.819 128.863 337.576 134.005 326.74L139.937 314.479L139.067 305.383C134.321 257.292 114.784 221.777 75.7887 190.454C58.0708 176.217 25.6408 157.471 18.9175 157.471C17.3356 157.471 14.6462 158.182 12.9061 158.973Z" fill="url(#paint1_linear_6_2)"/>
<path d="M216.978 161.267C201.396 168.94 185.814 178.669 172.446 188.951C164.062 195.437 148.796 210.07 142.468 217.822L137.564 223.675L139.225 226.365C147.293 239.495 155.282 260.456 159.237 278.648C159.949 282.049 160.581 284.818 160.66 284.818C160.74 284.818 164.932 280.784 169.915 275.88C188.107 258.083 208.989 244.873 235.961 234.116L245.453 230.399L246.086 226.523C247.351 218.613 245.216 187.29 242.289 172.104C240.549 162.691 236.673 158.657 228.605 157.787C225.283 157.391 224.018 157.787 216.978 161.267Z" fill="url(#paint2_linear_6_2)"/>
<path d="M376.065 288.568H443.266V321H335.16V117.061H376.065V288.568ZM490.009 139.851C482.802 139.851 476.764 137.61 471.894 133.13C467.219 128.456 464.882 122.709 464.882 115.892C464.882 109.075 467.219 103.426 471.894 98.9458C476.764 94.2709 482.802 91.9335 490.009 91.9335C497.216 91.9335 503.157 94.2709 507.832 98.9458C512.702 103.426 515.136 109.075 515.136 115.892C515.136 122.709 512.702 128.456 507.832 133.13C503.157 137.61 497.216 139.851 490.009 139.851ZM510.169 159.134V321H469.265V159.134H510.169ZM618.076 283.309L658.981 159.134H702.515L642.619 321H592.949L533.345 159.134H577.171L618.076 283.309ZM875.961 236.561C875.961 242.404 875.571 247.664 874.792 252.338H756.461C757.435 264.026 761.525 273.18 768.732 279.803C775.939 286.426 784.802 289.737 795.32 289.737C810.513 289.737 821.324 283.212 827.752 270.161H871.87C867.196 285.744 858.235 298.6 844.99 308.729C831.745 318.663 815.48 323.63 796.197 323.63C780.614 323.63 766.589 320.221 754.123 313.403C741.852 306.391 732.21 296.555 725.198 283.894C718.38 271.233 714.972 256.624 714.972 240.067C714.972 223.316 718.38 208.609 725.198 195.948C732.015 183.287 741.56 173.548 753.831 166.731C766.102 159.913 780.224 156.505 796.197 156.505C811.585 156.505 825.317 159.816 837.394 166.439C849.665 173.061 859.112 182.508 865.735 194.78C872.552 206.856 875.961 220.783 875.961 236.561ZM833.595 224.874C833.4 214.356 829.602 205.98 822.2 199.747C814.799 193.319 805.741 190.105 795.028 190.105C784.899 190.105 776.329 193.221 769.316 199.455C762.499 205.493 758.311 213.966 756.753 224.874H833.595ZM895.299 239.483C895.299 223.121 898.513 208.609 904.941 195.948C911.564 183.287 920.426 173.548 931.529 166.731C942.827 159.913 955.39 156.505 969.22 156.505C981.297 156.505 991.815 158.939 1000.77 163.809C1009.93 168.679 1017.23 174.814 1022.69 182.216V159.134H1063.89V321H1022.69V297.334C1017.43 304.93 1010.12 311.261 1000.77 316.325C991.62 321.195 981.004 323.63 968.928 323.63C955.293 323.63 942.827 320.123 931.529 313.111C920.426 306.099 911.564 296.262 904.941 283.601C898.513 270.746 895.299 256.039 895.299 239.483ZM1022.69 240.067C1022.69 230.133 1020.74 221.66 1016.84 214.648C1012.95 207.441 1007.69 201.987 1001.07 198.286C994.445 194.39 987.335 192.442 979.738 192.442C972.142 192.442 965.129 194.293 958.702 197.994C952.274 201.695 947.014 207.149 942.924 214.356C939.028 221.368 937.08 229.744 937.08 239.483C937.08 249.222 939.028 257.792 942.924 265.194C947.014 272.401 952.274 277.953 958.702 281.848C965.324 285.744 972.336 287.692 979.738 287.692C987.335 287.692 994.445 285.841 1001.07 282.141C1007.69 278.245 1012.95 272.791 1016.84 265.779C1020.74 258.572 1022.69 250.001 1022.69 240.067ZM1144.74 104.789V321H1103.84V104.789H1144.74ZM1232.78 192.734V271.038C1232.78 276.492 1234.05 280.485 1236.58 283.017C1239.3 285.354 1243.78 286.523 1250.02 286.523H1269.01V321H1243.3C1208.82 321 1191.58 304.249 1191.58 270.746V192.734H1172.3V159.134H1191.58V119.106H1232.78V159.134H1269.01V192.734H1232.78ZM1389.59 156.797C1401.86 156.797 1412.77 159.524 1422.31 164.978C1431.86 170.237 1439.26 178.126 1444.52 188.644C1449.97 198.968 1452.7 211.434 1452.7 226.043V321H1411.79V231.594C1411.79 218.738 1408.58 208.902 1402.15 202.084C1395.72 195.072 1386.96 191.566 1375.86 191.566C1364.56 191.566 1355.6 195.072 1348.98 202.084C1342.55 208.902 1339.33 218.738 1339.33 231.594V321H1298.43V104.789H1339.33V179.294C1344.59 172.282 1351.61 166.828 1360.37 162.932C1369.14 158.842 1378.88 156.797 1389.59 156.797Z" fill="white"/>
<defs>
<linearGradient id="paint0_linear_6_2" x1="122.164" y1="76" x2="122.164" y2="203.189" gradientUnits="userSpaceOnUse">
<stop stop-color="#16A34A"/>
<stop offset="1" stop-color="#0B7231"/>
</linearGradient>
<linearGradient id="paint1_linear_6_2" x1="69.9684" y1="157.471" x2="69.9684" y2="363" gradientUnits="userSpaceOnUse">
<stop stop-color="#16A34A"/>
<stop offset="1" stop-color="#0B7231"/>
</linearGradient>
<linearGradient id="paint2_linear_6_2" x1="192.011" y1="157.663" x2="192.011" y2="284.818" gradientUnits="userSpaceOnUse">
<stop stop-color="#16A34A"/>
<stop offset="1" stop-color="#0B7231"/>
</linearGradient>
</defs>
</svg>
