<svg width="416" height="484" viewBox="0 0 416 484" fill="none" xmlns="http://www.w3.org/2000/svg">
<path d="M194.956 2.80002C181.622 9.33334 139.489 73.2 120.289 116.133C116.289 125.067 113.489 132.8 114.022 133.333C114.556 133.867 121.089 138.4 128.422 143.333C153.356 160.4 177.489 181.333 196.422 202.133L207.489 214.4L223.089 197.867C240.422 179.467 264.156 159.067 284.822 144.8C297.222 136.267 298.422 135.067 297.756 132C296.422 126.667 278.022 89.3334 269.622 75.0667C255.756 51.3333 228.689 12.8 221.489 6.40001C217.756 3.06668 209.756 1.52588e-05 204.822 1.52588e-05C202.422 1.52588e-05 197.889 1.20001 194.956 2.80002Z" fill="url(#paint0_linear_2_10)"/>
<path d="M21.7555 139.867C15.6222 142.667 11.2222 147.067 9.22221 152.133C3.88888 166.267 -1.57779 229.733 0.422213 253.733C1.35555 264.933 1.35555 265.067 5.48888 266.8C60.5555 288.533 107.622 322.533 140.022 364.133C163.622 394.4 187.489 440.8 198.556 478.267C200.422 484.933 201.756 485.467 203.089 480.4C205.622 470 217.222 440.933 225.889 422.667L235.889 402L234.422 386.667C226.422 305.6 193.489 245.733 127.756 192.933C97.8889 168.933 43.2222 137.333 31.8889 137.333C29.2222 137.333 24.6889 138.533 21.7555 139.867Z" fill="url(#paint1_linear_2_10)"/>
<path d="M365.756 143.733C339.489 156.667 313.222 173.067 290.689 190.4C276.556 201.333 250.822 226 240.156 239.067L231.889 248.933L234.689 253.467C248.289 275.6 261.756 310.933 268.422 341.6C269.622 347.333 270.689 352 270.822 352C270.956 352 278.022 345.2 286.422 336.933C317.089 306.933 352.289 284.667 397.756 266.533L413.756 260.267L414.822 253.733C416.956 240.4 413.356 187.6 408.422 162C405.489 146.133 398.956 139.333 385.356 137.867C379.756 137.2 377.622 137.867 365.756 143.733Z" fill="url(#paint2_linear_2_10)"/>
<defs>
<linearGradient id="paint0_linear_2_10" x1="205.929" y1="1.52588e-05" x2="205.929" y2="214.4" gradientUnits="userSpaceOnUse">
<stop stop-color="#16A34A"/>
<stop offset="1" stop-color="#0B7231"/>
</linearGradient>
<linearGradient id="paint1_linear_2_10" x1="117.944" y1="137.333" x2="117.944" y2="483.79" gradientUnits="userSpaceOnUse">
<stop stop-color="#16A34A"/>
<stop offset="1" stop-color="#0B7231"/>
</linearGradient>
<linearGradient id="paint2_linear_2_10" x1="323.669" y1="137.657" x2="323.669" y2="352" gradientUnits="userSpaceOnUse">
<stop stop-color="#16A34A"/>
<stop offset="1" stop-color="#0B7231"/>
</linearGradient>
</defs>
</svg>
